<mxfile host="app.diagrams.net" modified="2024-06-01T14:07:14.579Z" agent="Mozilla/5.0 (Windows NT 10.0; Win64; x64) AppleWebKit/537.36 (KHTML, like Gecko) Chrome/125.0.0.0 Safari/537.36" etag="cgLHrFMyvMCPT0iW9b-b" version="24.4.13" type="device">
  <diagram name="Page-1" id="IJlSwxQB0Fi7db1ocZXq">
    <mxGraphModel dx="1500" dy="807" grid="1" gridSize="10" guides="1" tooltips="1" connect="1" arrows="1" fold="1" page="1" pageScale="1" pageWidth="827" pageHeight="1169" math="0" shadow="0">
      <root>
        <mxCell id="0" />
        <mxCell id="1" parent="0" />
        <mxCell id="_kvFjtFokX8FuQzygR3H-1" value="&lt;font style=&quot;font-size: 28px;&quot;&gt;submission&lt;/font&gt;" style="swimlane;whiteSpace=wrap;html=1;startSize=30;fillStyle=solid;fillColor=#E0E0E0;strokeColor=#36393d;" vertex="1" parent="1">
          <mxGeometry x="10" y="370" width="240" height="70" as="geometry">
            <mxRectangle x="270" y="480" width="120" height="60" as="alternateBounds" />
          </mxGeometry>
        </mxCell>
        <mxCell id="_kvFjtFokX8FuQzygR3H-2" value="" style="rounded=0;whiteSpace=wrap;html=1;fillColor=#f5f5f5;fontColor=#333333;strokeColor=#666666;" vertex="1" parent="_kvFjtFokX8FuQzygR3H-1">
          <mxGeometry y="30" width="240" height="40" as="geometry" />
        </mxCell>
        <mxCell id="_kvFjtFokX8FuQzygR3H-3" value="&lt;span style=&quot;font-size: 16px;&quot;&gt;answered-questions[ ]&lt;/span&gt;" style="text;html=1;align=center;verticalAlign=middle;whiteSpace=wrap;rounded=0;" vertex="1" parent="_kvFjtFokX8FuQzygR3H-1">
          <mxGeometry y="35" width="160" height="30" as="geometry" />
        </mxCell>
        <mxCell id="_kvFjtFokX8FuQzygR3H-4" value="&lt;font style=&quot;font-size: 16px;&quot;&gt;Object&lt;/font&gt;" style="text;html=1;align=center;verticalAlign=middle;resizable=0;points=[];autosize=1;strokeColor=none;fillColor=none;" vertex="1" parent="_kvFjtFokX8FuQzygR3H-1">
          <mxGeometry x="170" y="35" width="70" height="30" as="geometry" />
        </mxCell>
        <mxCell id="_kvFjtFokX8FuQzygR3H-5" value="&lt;font style=&quot;font-size: 28px;&quot;&gt;answered-question&lt;/font&gt;" style="swimlane;whiteSpace=wrap;html=1;startSize=30;fillStyle=solid;fillColor=#E0E0E0;strokeColor=#36393d;" vertex="1" parent="1">
          <mxGeometry x="280" y="420" width="350" height="110" as="geometry">
            <mxRectangle x="270" y="480" width="120" height="60" as="alternateBounds" />
          </mxGeometry>
        </mxCell>
        <mxCell id="_kvFjtFokX8FuQzygR3H-6" value="" style="rounded=0;whiteSpace=wrap;html=1;fillColor=#f5f5f5;fontColor=#333333;strokeColor=#666666;" vertex="1" parent="_kvFjtFokX8FuQzygR3H-5">
          <mxGeometry y="30" width="350" height="40" as="geometry" />
        </mxCell>
        <mxCell id="_kvFjtFokX8FuQzygR3H-7" value="&lt;span style=&quot;font-size: 16px;&quot;&gt;question_id&lt;/span&gt;" style="text;html=1;align=center;verticalAlign=middle;whiteSpace=wrap;rounded=0;" vertex="1" parent="_kvFjtFokX8FuQzygR3H-5">
          <mxGeometry x="10" y="35" width="80" height="30" as="geometry" />
        </mxCell>
        <mxCell id="_kvFjtFokX8FuQzygR3H-8" value="" style="rounded=0;whiteSpace=wrap;html=1;fillColor=#f5f5f5;fontColor=#333333;strokeColor=#666666;" vertex="1" parent="_kvFjtFokX8FuQzygR3H-5">
          <mxGeometry y="70" width="230" height="40" as="geometry" />
        </mxCell>
        <mxCell id="_kvFjtFokX8FuQzygR3H-9" value="" style="rounded=0;whiteSpace=wrap;html=1;fillColor=#f5f5f5;fontColor=#333333;strokeColor=#666666;" vertex="1" parent="_kvFjtFokX8FuQzygR3H-5">
          <mxGeometry y="70" width="350" height="40" as="geometry" />
        </mxCell>
        <mxCell id="_kvFjtFokX8FuQzygR3H-10" value="&lt;span style=&quot;color: rgb(0, 0, 0); font-family: Helvetica; font-size: 16px; font-style: normal; font-variant-ligatures: normal; font-variant-caps: normal; font-weight: 400; letter-spacing: normal; orphans: 2; text-align: center; text-indent: 0px; text-transform: none; widows: 2; word-spacing: 0px; -webkit-text-stroke-width: 0px; white-space: normal; background-color: rgb(251, 251, 251); text-decoration-thickness: initial; text-decoration-style: initial; text-decoration-color: initial; display: inline !important; float: none;&quot;&gt;answer&lt;/span&gt;" style="text;whiteSpace=wrap;html=1;" vertex="1" parent="_kvFjtFokX8FuQzygR3H-5">
          <mxGeometry x="10" y="75" width="110" height="30" as="geometry" />
        </mxCell>
        <mxCell id="_kvFjtFokX8FuQzygR3H-11" value="&lt;font style=&quot;font-size: 16px;&quot;&gt;String&lt;/font&gt;" style="text;html=1;align=center;verticalAlign=middle;resizable=0;points=[];autosize=1;strokeColor=none;fillColor=none;" vertex="1" parent="_kvFjtFokX8FuQzygR3H-5">
          <mxGeometry x="270" y="35" width="70" height="30" as="geometry" />
        </mxCell>
        <mxCell id="_kvFjtFokX8FuQzygR3H-12" value="&lt;font style=&quot;font-size: 16px;&quot;&gt;string&lt;/font&gt;" style="text;html=1;align=center;verticalAlign=middle;resizable=0;points=[];autosize=1;strokeColor=none;fillColor=none;" vertex="1" parent="_kvFjtFokX8FuQzygR3H-5">
          <mxGeometry x="275" y="75" width="60" height="30" as="geometry" />
        </mxCell>
        <mxCell id="_kvFjtFokX8FuQzygR3H-13" style="edgeStyle=orthogonalEdgeStyle;rounded=0;orthogonalLoop=1;jettySize=auto;html=1;entryX=0.009;entryY=0.144;entryDx=0;entryDy=0;curved=1;entryPerimeter=0;" edge="1" parent="1" source="_kvFjtFokX8FuQzygR3H-2" target="_kvFjtFokX8FuQzygR3H-5">
          <mxGeometry relative="1" as="geometry" />
        </mxCell>
      </root>
    </mxGraphModel>
  </diagram>
</mxfile>
